<?xml version="1.0" encoding="UTF-8" standalone="no"?>
<!-- Created with Inkscape (http://www.inkscape.org/) -->

<svg
   width="400"
   height="99.999985"
   viewBox="0 0 105.83334 26.458328"
   version="1.1"
   id="svg1"
   inkscape:version="1.3 (0e150ed6c4, 2023-07-21)"
   sodipodi:docname="Fullscreen.svg"
   inkscape:export-filename="PlayPause.png"
   inkscape:export-xdpi="96"
   inkscape:export-ydpi="96"
   xml:space="preserve"
   xmlns:inkscape="http://www.inkscape.org/namespaces/inkscape"
   xmlns:sodipodi="http://sodipodi.sourceforge.net/DTD/sodipodi-0.dtd"
   xmlns="http://www.w3.org/2000/svg"
   xmlns:svg="http://www.w3.org/2000/svg"><sodipodi:namedview
     id="namedview1"
     pagecolor="#595959"
     bordercolor="#000000"
     borderopacity="0.25"
     inkscape:showpageshadow="2"
     inkscape:pageopacity="0.0"
     inkscape:pagecheckerboard="0"
     inkscape:deskcolor="#595959"
     inkscape:document-units="mm"
     inkscape:zoom="1.6421381"
     inkscape:cx="187.86484"
     inkscape:cy="79.469567"
     inkscape:window-width="1898"
     inkscape:window-height="952"
     inkscape:window-x="0"
     inkscape:window-y="0"
     inkscape:window-maximized="1"
     inkscape:current-layer="layer1" /><defs
     id="defs1"><inkscape:path-effect
       effect="fillet_chamfer"
       id="path-effect28"
       is_visible="true"
       lpeversion="1"
       nodesatellites_param="F,0,0,1,0,0.52916667,0,1 @ F,0,0,1,0,0.52916667,0,1 @ F,0,0,1,0,0.52916667,0,1 @ F,0,0,1,0,0.52916667,0,1 @ F,0,0,1,0,0.52916667,0,1 @ F,0,0,1,0,0.52916667,0,1"
       radius="2"
       unit="px"
       method="auto"
       mode="F"
       chamfer_steps="1"
       flexible="false"
       use_knot_distance="true"
       apply_no_radius="true"
       apply_with_radius="true"
       only_selected="false"
       hide_knots="false" /><inkscape:path-effect
       effect="fillet_chamfer"
       id="path-effect26"
       is_visible="true"
       lpeversion="1"
       nodesatellites_param="F,0,0,1,0,0.52916667,0,1 @ F,0,0,1,0,0.52916667,0,1 @ F,0,0,1,0,0.52916667,0,1 @ F,0,0,1,0,0.52916667,0,1 @ F,0,0,1,0,0.52916667,0,1 @ F,0,0,1,0,0.52916667,0,1"
       radius="2"
       unit="px"
       method="auto"
       mode="F"
       chamfer_steps="1"
       flexible="false"
       use_knot_distance="true"
       apply_no_radius="true"
       apply_with_radius="true"
       only_selected="false"
       hide_knots="false" /><inkscape:path-effect
       effect="fillet_chamfer"
       id="path-effect24"
       is_visible="true"
       lpeversion="1"
       nodesatellites_param="F,0,0,1,0,0.52916667,0,1 @ F,0,0,1,0,0.52916667,0,1 @ F,0,0,1,0,0.52916667,0,1 @ F,0,0,1,0,0.52916667,0,1 @ F,0,0,1,0,0.52916667,0,1 @ F,0,0,1,0,0.52916667,0,1"
       radius="2"
       unit="px"
       method="auto"
       mode="F"
       chamfer_steps="1"
       flexible="false"
       use_knot_distance="true"
       apply_no_radius="true"
       apply_with_radius="true"
       only_selected="false"
       hide_knots="false" /><inkscape:path-effect
       effect="fillet_chamfer"
       id="path-effect22"
       is_visible="true"
       lpeversion="1"
       nodesatellites_param="F,0,0,1,0,0.52916667,0,1 @ F,0,0,1,0,0.52916667,0,1 @ F,0,0,1,0,0.52916667,0,1 @ F,0,0,1,0,0.52916667,0,1 @ F,0,0,1,0,0.52916667,0,1 @ F,0,0,1,0,0.52916667,0,1 | F,0,0,1,0,0.52916667,0,1 @ F,0,0,1,0,0.52916667,0,1 @ F,0,0,1,0,0.52916667,0,1 @ F,0,0,1,0,0.52916667,0,1 @ F,0,0,1,0,0.52916667,0,1 @ F,0,0,1,0,0.52916667,0,1 | F,0,0,1,0,0.52916667,0,1 @ F,0,0,1,0,0.52916667,0,1 @ F,0,0,1,0,0.52916667,0,1 @ F,0,0,1,0,0.52916667,0,1 @ F,0,0,1,0,0.52916667,0,1 @ F,0,0,1,0,0.52916667,0,1 | F,0,0,1,0,0.52916667,0,1 @ F,0,0,1,0,0.52916667,0,1 @ F,0,0,1,0,0.52916667,0,1 @ F,0,0,1,0,0.52916667,0,1 @ F,0,0,1,0,0.52916667,0,1 @ F,0,0,1,0,0.52916667,0,1"
       radius="2"
       unit="px"
       method="auto"
       mode="F"
       chamfer_steps="1"
       flexible="false"
       use_knot_distance="true"
       apply_no_radius="true"
       apply_with_radius="true"
       only_selected="false"
       hide_knots="false" /><inkscape:path-effect
       effect="fillet_chamfer"
       id="path-effect21"
       is_visible="true"
       lpeversion="1"
       nodesatellites_param="F,0,0,1,0,0.52916667,0,1 @ F,0,0,1,0,0.52916667,0,1 @ F,0,0,1,0,0.52916667,0,1 @ F,0,0,1,0,0.52916667,0,1 @ F,0,0,1,0,0.52916667,0,1 @ F,0,0,1,0,0.52916667,0,1"
       radius="2"
       unit="px"
       method="auto"
       mode="F"
       chamfer_steps="1"
       flexible="false"
       use_knot_distance="true"
       apply_no_radius="true"
       apply_with_radius="true"
       only_selected="false"
       hide_knots="false" /><inkscape:path-effect
       effect="fillet_chamfer"
       id="path-effect19"
       is_visible="true"
       lpeversion="1"
       nodesatellites_param="F,0,0,1,0,0.52916667,0,1 @ F,0,0,1,0,0.52916667,0,1 @ F,0,0,1,0,0.52916667,0,1 @ F,0,0,1,0,0.52916667,0,1 @ F,0,0,1,0,0.52916667,0,1 @ F,0,0,1,0,0.52916667,0,1"
       radius="2"
       unit="px"
       method="auto"
       mode="F"
       chamfer_steps="1"
       flexible="false"
       use_knot_distance="true"
       apply_no_radius="true"
       apply_with_radius="true"
       only_selected="false"
       hide_knots="false" /><inkscape:path-effect
       effect="fillet_chamfer"
       id="path-effect17"
       is_visible="true"
       lpeversion="1"
       nodesatellites_param="F,0,0,1,0,0.52916667,0,1 @ F,0,0,1,0,0.52916667,0,1 @ F,0,0,1,0,0.52916667,0,1 @ F,0,0,1,0,0.52916667,0,1 @ F,0,0,1,0,0.52916667,0,1 @ F,0,0,1,0,0.52916667,0,1"
       radius="2"
       unit="px"
       method="auto"
       mode="F"
       chamfer_steps="1"
       flexible="false"
       use_knot_distance="true"
       apply_no_radius="true"
       apply_with_radius="true"
       only_selected="false"
       hide_knots="false" /><inkscape:path-effect
       effect="fillet_chamfer"
       id="path-effect15"
       is_visible="true"
       lpeversion="1"
       nodesatellites_param="F,0,0,1,0,0.52916667,0,1 @ F,0,0,1,0,0.52916667,0,1 @ F,0,0,1,0,0.52916667,0,1 @ F,0,0,1,0,0.52916667,0,1 @ F,0,0,1,0,0.52916667,0,1 @ F,0,0,1,0,0.52916667,0,1 | F,0,0,1,0,0.52916667,0,1 @ F,0,0,1,0,0.52916667,0,1 @ F,0,0,1,0,0.52916667,0,1 @ F,0,0,1,0,0.52916667,0,1 @ F,0,0,1,0,0.52916667,0,1 @ F,0,0,1,0,0.52916667,0,1 | F,0,0,1,0,0.52916667,0,1 @ F,0,0,1,0,0.52916667,0,1 @ F,0,0,1,0,0.52916667,0,1 @ F,0,0,1,0,0.52916667,0,1 @ F,0,0,1,0,0.52916667,0,1 @ F,0,0,1,0,0.52916667,0,1 | F,0,0,1,0,0.52916667,0,1 @ F,0,0,1,0,0.52916667,0,1 @ F,0,0,1,0,0.52916667,0,1 @ F,0,0,1,0,0.52916667,0,1 @ F,0,0,1,0,0.52916667,0,1 @ F,0,0,1,0,0.52916667,0,1"
       radius="2"
       unit="px"
       method="auto"
       mode="F"
       chamfer_steps="1"
       flexible="false"
       use_knot_distance="true"
       apply_no_radius="true"
       apply_with_radius="true"
       only_selected="false"
       hide_knots="false" /><inkscape:path-effect
       effect="fillet_chamfer"
       id="path-effect12"
       is_visible="true"
       lpeversion="1"
       nodesatellites_param="F,0,0,1,0,0.26458333,0,1 @ F,0,0,1,0,0.26458333,0,1 @ F,0,0,1,0,0.26458333,0,1 @ F,0,0,1,0,0.26458333,0,1"
       radius="1"
       unit="px"
       method="auto"
       mode="F"
       chamfer_steps="1"
       flexible="false"
       use_knot_distance="true"
       apply_no_radius="true"
       apply_with_radius="true"
       only_selected="false"
       hide_knots="false" /><inkscape:path-effect
       effect="fillet_chamfer"
       id="path-effect11"
       is_visible="true"
       lpeversion="1"
       nodesatellites_param="F,0,0,1,0,0.79375,0,1 @ F,0,0,1,0,0.79375,0,1 @ F,0,0,1,0,0.79375,0,1 @ F,0,0,1,0,0.79375,0,1"
       radius="3"
       unit="px"
       method="auto"
       mode="F"
       chamfer_steps="1"
       flexible="false"
       use_knot_distance="true"
       apply_no_radius="true"
       apply_with_radius="true"
       only_selected="false"
       hide_knots="false" /><inkscape:path-effect
       effect="fillet_chamfer"
       id="path-effect10"
       is_visible="true"
       lpeversion="1"
       nodesatellites_param="F,0,0,1,0,7.9375,0,1 @ F,0,0,1,0,7.9375,0,1 @ F,0,0,1,0,7.9375,0,1 @ F,0,0,1,0,7.9375,0,1"
       radius="30"
       unit="px"
       method="auto"
       mode="F"
       chamfer_steps="1"
       flexible="false"
       use_knot_distance="true"
       apply_no_radius="true"
       apply_with_radius="true"
       only_selected="false"
       hide_knots="false" /><inkscape:path-effect
       effect="fillet_chamfer"
       id="path-effect9"
       is_visible="true"
       lpeversion="1"
       nodesatellites_param="F,0,0,1,0,7.9375,0,1 @ F,0,0,1,0,7.9375,0,1 @ F,0,0,1,0,7.9375,0,1 @ F,0,0,1,0,7.9375,0,1"
       radius="30"
       unit="px"
       method="auto"
       mode="F"
       chamfer_steps="1"
       flexible="false"
       use_knot_distance="true"
       apply_no_radius="true"
       apply_with_radius="true"
       only_selected="false"
       hide_knots="false" /><inkscape:path-effect
       effect="fillet_chamfer"
       id="path-effect8"
       is_visible="true"
       lpeversion="1"
       nodesatellites_param="F,0,0,1,0,52.916667,0,1 @ F,0,0,1,0,52.916667,0,1 @ F,0,0,1,0,52.916667,0,1 @ F,0,0,1,0,52.916667,0,1 @ F,0,0,1,0,52.916667,0,1 @ F,0,0,1,0,52.916667,0,1"
       radius="200"
       unit="px"
       method="auto"
       mode="F"
       chamfer_steps="1"
       flexible="false"
       use_knot_distance="true"
       apply_no_radius="true"
       apply_with_radius="true"
       only_selected="false"
       hide_knots="false" /><inkscape:path-effect
       effect="fillet_chamfer"
       id="path-effect7"
       is_visible="true"
       lpeversion="1"
       nodesatellites_param="F,0,0,1,0,2.6458333,0,1 @ F,0,0,1,0,2.6458333,0,1 @ F,0,0,1,0,2.6458333,0,1 @ F,0,0,1,0,2.6458333,0,1 @ F,0,0,1,0,2.6458333,0,1 @ F,0,0,1,0,2.6458333,0,1 | F,0,0,1,0,2.6458333,0,1 @ F,0,0,1,0,2.6458333,0,1 @ F,0,0,1,0,2.6458333,0,1 @ F,0,0,1,0,2.6458333,0,1 @ F,0,0,1,0,2.6458333,0,1 @ F,0,0,1,0,2.6458333,0,1 | F,0,0,1,0,2.6458333,0,1 @ F,0,0,1,0,2.6458333,0,1 @ F,0,0,1,0,2.6458333,0,1 @ F,0,0,1,0,2.6458333,0,1 @ F,0,0,1,0,2.6458333,0,1 @ F,0,0,1,0,2.6458333,0,1"
       radius="10"
       unit="px"
       method="auto"
       mode="F"
       chamfer_steps="1"
       flexible="false"
       use_knot_distance="true"
       apply_no_radius="true"
       apply_with_radius="true"
       only_selected="false"
       hide_knots="false" /><inkscape:path-effect
       effect="copy_rotate"
       starting_point="39.874052,160.98863"
       origin="34.582385,160.98863"
       id="path-effect6"
       is_visible="true"
       lpeversion="1.2"
       lpesatellites=""
       method="normal"
       num_copies="3"
       starting_angle="0"
       rotation_angle="60"
       gap="-0.01"
       copies_to_360="true"
       mirror_copies="false"
       split_items="false"
       link_styles="false" /><inkscape:path-effect
       effect="fillet_chamfer"
       id="path-effect5"
       is_visible="true"
       lpeversion="1"
       nodesatellites_param="F,0,0,1,0,52.916667,0,1 @ F,0,0,1,0,52.916667,0,1 @ F,0,0,1,0,52.916667,0,1 @ F,0,0,1,0,52.916667,0,1 @ F,0,0,1,0,52.916667,0,1 @ F,0,0,1,0,52.916667,0,1"
       radius="200"
       unit="px"
       method="auto"
       mode="F"
       chamfer_steps="1"
       flexible="false"
       use_knot_distance="true"
       apply_no_radius="true"
       apply_with_radius="true"
       only_selected="false"
       hide_knots="false" /><inkscape:path-effect
       effect="fillet_chamfer"
       id="path-effect4"
       is_visible="true"
       lpeversion="1"
       nodesatellites_param="F,0,0,1,0,19.84375,0,1 @ F,0,0,1,0,19.84375,0,1 @ F,0,0,1,0,19.84375,0,1 @ F,0,0,1,0,19.84375,0,1 @ F,0,0,1,0,19.84375,0,1 @ F,0,0,1,0,19.84375,0,1"
       radius="75"
       unit="px"
       method="auto"
       mode="F"
       chamfer_steps="1"
       flexible="false"
       use_knot_distance="true"
       apply_no_radius="true"
       apply_with_radius="true"
       only_selected="false"
       hide_knots="false" /><inkscape:path-effect
       effect="fillet_chamfer"
       id="path-effect1"
       is_visible="true"
       lpeversion="1"
       nodesatellites_param="F,0,0,1,0,19.84375,0,1 @ F,0,0,1,0,19.84375,0,1 @ F,0,0,1,0,19.84375,0,1 @ F,0,0,1,0,19.84375,0,1 @ F,0,0,1,0,19.84375,0,1 @ F,0,0,1,0,19.84375,0,1"
       radius="75"
       unit="px"
       method="auto"
       mode="F"
       chamfer_steps="1"
       flexible="false"
       use_knot_distance="true"
       apply_no_radius="true"
       apply_with_radius="true"
       only_selected="false"
       hide_knots="false" /><inkscape:path-effect
       effect="fillet_chamfer"
       id="path-effect3"
       is_visible="true"
       lpeversion="1"
       nodesatellites_param="F,0,0,1,0,1.3229167,0,1 @ F,0,0,1,0,1.3229167,0,1 @ F,0,0,1,0,1.3229167,0,1 @ F,0,0,1,0,1.3229167,0,1 @ F,0,0,1,0,1.3229167,0,1 @ F,0,0,1,0,1.3229167,0,1 @ F,0,0,1,0,1.3229167,0,1 @ F,0,0,1,0,1.3229167,0,1 @ F,0,0,1,0,1.3229167,0,1 @ F,0,0,1,0,1.3229167,0,1"
       radius="5"
       unit="px"
       method="auto"
       mode="F"
       chamfer_steps="1"
       flexible="false"
       use_knot_distance="true"
       apply_no_radius="true"
       apply_with_radius="true"
       only_selected="false"
       hide_knots="false" /><inkscape:path-effect
       effect="fillet_chamfer"
       id="path-effect2"
       is_visible="true"
       lpeversion="1"
       nodesatellites_param="F,0,0,1,0,0,0,1 @ F,0,0,1,0,0,0,1 @ F,0,0,1,0,0,0,1 @ F,0,0,1,0,0,0,1"
       radius="0"
       unit="px"
       method="auto"
       mode="F"
       chamfer_steps="1"
       flexible="false"
       use_knot_distance="true"
       apply_no_radius="true"
       apply_with_radius="true"
       only_selected="false"
       hide_knots="false" /><inkscape:path-effect
       effect="fillet_chamfer"
       id="path-effect2-2"
       is_visible="true"
       lpeversion="1"
       nodesatellites_param="F,0,0,1,0,0,0,1 @ F,0,0,1,0,0,0,1 @ F,0,0,1,0,0,0,1 @ F,0,0,1,0,0,0,1"
       radius="0"
       unit="px"
       method="auto"
       mode="F"
       chamfer_steps="1"
       flexible="false"
       use_knot_distance="true"
       apply_no_radius="true"
       apply_with_radius="true"
       only_selected="false"
       hide_knots="false" /><inkscape:path-effect
       effect="fillet_chamfer"
       id="path-effect2-2-5"
       is_visible="true"
       lpeversion="1"
       nodesatellites_param="F,0,0,1,0,0,0,1 @ F,0,0,1,0,0,0,1 @ F,0,0,1,0,0,0,1 @ F,0,0,1,0,0,0,1"
       radius="0"
       unit="px"
       method="auto"
       mode="F"
       chamfer_steps="1"
       flexible="false"
       use_knot_distance="true"
       apply_no_radius="true"
       apply_with_radius="true"
       only_selected="false"
       hide_knots="false" /><inkscape:path-effect
       effect="fillet_chamfer"
       id="path-effect2-2-5-5"
       is_visible="true"
       lpeversion="1"
       nodesatellites_param="F,0,0,1,0,0,0,1 @ F,0,0,1,0,0,0,1 @ F,0,0,1,0,0,0,1 @ F,0,0,1,0,0,0,1"
       radius="0"
       unit="px"
       method="auto"
       mode="F"
       chamfer_steps="1"
       flexible="false"
       use_knot_distance="true"
       apply_no_radius="true"
       apply_with_radius="true"
       only_selected="false"
       hide_knots="false" /><inkscape:path-effect
       effect="fillet_chamfer"
       id="path-effect2-2-5-5-4"
       is_visible="true"
       lpeversion="1"
       nodesatellites_param="F,0,0,1,0,0,0,1 @ F,0,0,1,0,0,0,1 @ F,0,0,1,0,0,0,1 @ F,0,0,1,0,0,0,1"
       radius="0"
       unit="px"
       method="auto"
       mode="F"
       chamfer_steps="1"
       flexible="false"
       use_knot_distance="true"
       apply_no_radius="true"
       apply_with_radius="true"
       only_selected="false"
       hide_knots="false" /><inkscape:path-effect
       effect="fillet_chamfer"
       id="path-effect3-0"
       is_visible="true"
       lpeversion="1"
       nodesatellites_param="F,0,0,1,0,1.3229167,0,1 @ F,0,0,1,0,1.3229167,0,1 @ F,0,0,1,0,1.3229167,0,1 @ F,0,0,1,0,1.3229167,0,1 @ F,0,0,1,0,1.3229167,0,1 @ F,0,0,1,0,1.3229167,0,1 @ F,0,0,1,0,1.3229167,0,1 @ F,0,0,1,0,1.3229167,0,1 @ F,0,0,1,0,1.3229167,0,1 @ F,0,0,1,0,1.3229167,0,1"
       radius="5"
       unit="px"
       method="auto"
       mode="F"
       chamfer_steps="1"
       flexible="false"
       use_knot_distance="true"
       apply_no_radius="true"
       apply_with_radius="true"
       only_selected="false"
       hide_knots="false" /><filter
       style="color-interpolation-filters:sRGB"
       inkscape:label="Greyscale"
       id="filter13"
       x="0"
       y="0"
       width="1"
       height="1"><feColorMatrix
         values="0.21 0.72 0.072 0 0 0.21 0.72 0.072 0 0 0.21 0.72 0.072 0 0 0 0 0 1 0 "
         id="feColorMatrix13" /></filter><inkscape:path-effect
       effect="fillet_chamfer"
       id="path-effect5-9"
       is_visible="true"
       lpeversion="1"
       nodesatellites_param="F,0,0,1,0,26.458333,0,1 @ F,0,0,1,0,26.458333,0,1 @ F,0,0,1,0,26.458333,0,1 @ F,0,0,1,0,26.458333,0,1 @ F,0,0,1,0,26.458333,0,1 @ F,0,0,1,0,26.458333,0,1"
       radius="100"
       unit="px"
       method="auto"
       mode="F"
       chamfer_steps="1"
       flexible="false"
       use_knot_distance="true"
       apply_no_radius="true"
       apply_with_radius="true"
       only_selected="false"
       hide_knots="false" /><inkscape:path-effect
       effect="fillet_chamfer"
       id="path-effect15-8"
       is_visible="true"
       lpeversion="1"
       nodesatellites_param="F,0,0,1,0,0.52916667,0,1 @ F,0,0,1,0,0.52916667,0,1 @ F,0,0,1,0,0.52916667,0,1 @ F,0,0,1,0,0.52916667,0,1 @ F,0,0,1,0,0.52916667,0,1 @ F,0,0,1,0,0.52916667,0,1"
       radius="2"
       unit="px"
       method="auto"
       mode="F"
       chamfer_steps="1"
       flexible="false"
       use_knot_distance="true"
       apply_no_radius="true"
       apply_with_radius="true"
       only_selected="false"
       hide_knots="false" /><inkscape:path-effect
       effect="fillet_chamfer"
       id="path-effect17-1"
       is_visible="true"
       lpeversion="1"
       nodesatellites_param="F,0,0,1,0,0.52916667,0,1 @ F,0,0,1,0,0.52916667,0,1 @ F,0,0,1,0,0.52916667,0,1 @ F,0,0,1,0,0.52916667,0,1 @ F,0,0,1,0,0.52916667,0,1 @ F,0,0,1,0,0.52916667,0,1"
       radius="2"
       unit="px"
       method="auto"
       mode="F"
       chamfer_steps="1"
       flexible="false"
       use_knot_distance="true"
       apply_no_radius="true"
       apply_with_radius="true"
       only_selected="false"
       hide_knots="false" /><inkscape:path-effect
       effect="fillet_chamfer"
       id="path-effect17-1-8"
       is_visible="true"
       lpeversion="1"
       nodesatellites_param="F,0,0,1,0,0.52916667,0,1 @ F,0,0,1,0,0.52916667,0,1 @ F,0,0,1,0,0.52916667,0,1 @ F,0,0,1,0,0.52916667,0,1 @ F,0,0,1,0,0.52916667,0,1 @ F,0,0,1,0,0.52916667,0,1"
       radius="2"
       unit="px"
       method="auto"
       mode="F"
       chamfer_steps="1"
       flexible="false"
       use_knot_distance="true"
       apply_no_radius="true"
       apply_with_radius="true"
       only_selected="false"
       hide_knots="false" /><inkscape:path-effect
       effect="fillet_chamfer"
       id="path-effect17-1-8-2"
       is_visible="true"
       lpeversion="1"
       nodesatellites_param="F,0,0,1,0,0.52916667,0,1 @ F,0,0,1,0,0.52916667,0,1 @ F,0,0,1,0,0.52916667,0,1 @ F,0,0,1,0,0.52916667,0,1 @ F,0,0,1,0,0.52916667,0,1 @ F,0,0,1,0,0.52916667,0,1"
       radius="2"
       unit="px"
       method="auto"
       mode="F"
       chamfer_steps="1"
       flexible="false"
       use_knot_distance="true"
       apply_no_radius="true"
       apply_with_radius="true"
       only_selected="false"
       hide_knots="false" /><inkscape:path-effect
       effect="fillet_chamfer"
       id="path-effect17-1-8-2-9"
       is_visible="true"
       lpeversion="1"
       nodesatellites_param="F,0,0,1,0,0.52916667,0,1 @ F,0,0,1,0,0.52916667,0,1 @ F,0,0,1,0,0.52916667,0,1 @ F,0,0,1,0,0.52916667,0,1 @ F,0,0,1,0,0.52916667,0,1 @ F,0,0,1,0,0.52916667,0,1"
       radius="2"
       unit="px"
       method="auto"
       mode="F"
       chamfer_steps="1"
       flexible="false"
       use_knot_distance="true"
       apply_no_radius="true"
       apply_with_radius="true"
       only_selected="false"
       hide_knots="false" /><inkscape:path-effect
       effect="fillet_chamfer"
       id="path-effect17-1-8-27"
       is_visible="true"
       lpeversion="1"
       nodesatellites_param="F,0,0,1,0,0.52916667,0,1 @ F,0,0,1,0,0.52916667,0,1 @ F,0,0,1,0,0.52916667,0,1 @ F,0,0,1,0,0.52916667,0,1 @ F,0,0,1,0,0.52916667,0,1 @ F,0,0,1,0,0.52916667,0,1"
       radius="2"
       unit="px"
       method="auto"
       mode="F"
       chamfer_steps="1"
       flexible="false"
       use_knot_distance="true"
       apply_no_radius="true"
       apply_with_radius="true"
       only_selected="false"
       hide_knots="false" /><inkscape:path-effect
       effect="fillet_chamfer"
       id="path-effect17-1-8-2-9-3"
       is_visible="true"
       lpeversion="1"
       nodesatellites_param="F,0,0,1,0,0.52916667,0,1 @ F,0,0,1,0,0.52916667,0,1 @ F,0,0,1,0,0.52916667,0,1 @ F,0,0,1,0,0.52916667,0,1 @ F,0,0,1,0,0.52916667,0,1 @ F,0,0,1,0,0.52916667,0,1"
       radius="2"
       unit="px"
       method="auto"
       mode="F"
       chamfer_steps="1"
       flexible="false"
       use_knot_distance="true"
       apply_no_radius="true"
       apply_with_radius="true"
       only_selected="false"
       hide_knots="false" /><inkscape:path-effect
       effect="fillet_chamfer"
       id="path-effect17-1-88"
       is_visible="true"
       lpeversion="1"
       nodesatellites_param="F,0,0,1,0,0.52916667,0,1 @ F,0,0,1,0,0.52916667,0,1 @ F,0,0,1,0,0.52916667,0,1 @ F,0,0,1,0,0.52916667,0,1 @ F,0,0,1,0,0.52916667,0,1 @ F,0,0,1,0,0.52916667,0,1"
       radius="2"
       unit="px"
       method="auto"
       mode="F"
       chamfer_steps="1"
       flexible="false"
       use_knot_distance="true"
       apply_no_radius="true"
       apply_with_radius="true"
       only_selected="false"
       hide_knots="false" /><inkscape:path-effect
       effect="fillet_chamfer"
       id="path-effect17-1-8-2-7"
       is_visible="true"
       lpeversion="1"
       nodesatellites_param="F,0,0,1,0,0.52916667,0,1 @ F,0,0,1,0,0.52916667,0,1 @ F,0,0,1,0,0.52916667,0,1 @ F,0,0,1,0,0.52916667,0,1 @ F,0,0,1,0,0.52916667,0,1 @ F,0,0,1,0,0.52916667,0,1"
       radius="2"
       unit="px"
       method="auto"
       mode="F"
       chamfer_steps="1"
       flexible="false"
       use_knot_distance="true"
       apply_no_radius="true"
       apply_with_radius="true"
       only_selected="false"
       hide_knots="false" /><inkscape:path-effect
       effect="fillet_chamfer"
       id="path-effect22-9"
       is_visible="true"
       lpeversion="1"
       nodesatellites_param="F,0,0,1,0,0.52916667,0,1 @ F,0,0,1,0,0.52916667,0,1 @ F,0,0,1,0,0.52916667,0,1 @ F,0,0,1,0,0.52916667,0,1 @ F,0,0,1,0,0.52916667,0,1 @ F,0,0,1,0,0.52916667,0,1"
       radius="2"
       unit="px"
       method="auto"
       mode="F"
       chamfer_steps="1"
       flexible="false"
       use_knot_distance="true"
       apply_no_radius="true"
       apply_with_radius="true"
       only_selected="false"
       hide_knots="false" /></defs><g
     inkscape:label="Layer 1"
     inkscape:groupmode="layer"
     id="layer1"
     transform="translate(5.1051114,-121.30113)"><path
       id="rect1"
       style="fill:#808080;stroke-width:13.4274;paint-order:markers fill stroke"
       d="m -5.1051114,121.30113 v 26.45833 H 21.353224 v -26.45833 z m 0.2204867,0.22049 H 21.132738 v 26.01736 H -4.8846247 Z" /><path
       id="rect1-1"
       style="fill:#808080;stroke-width:13.4274;paint-order:markers fill stroke"
       d="m 21.353224,121.30113 v 26.45833 h 26.45833 v -26.45833 z m 0.220487,0.22049 h 26.017357 v 26.01736 H 21.573711 Z" /><path
       id="rect1-1-7"
       style="fill:#808080;stroke-width:13.4274;paint-order:markers fill stroke"
       d="m 47.811555,121.30113 v 26.45833 h 26.45833 v -26.45833 z m 0.220487,0.22049 h 26.017357 v 26.01736 H 48.032042 Z" /><path
       id="rect1-1-0"
       style="fill:#808080;stroke-width:13.4274;paint-order:markers fill stroke"
       d="m 74.269885,121.30113 v 26.45833 h 26.458335 v -26.45833 z m 0.220487,0.22049 h 26.017358 v 26.01736 H 74.490372 Z" /><path
       id="rect12"
       style="fill:#000000;stroke-width:43.3091;paint-order:markers fill stroke"
       d="M 56.09294,98.907828 V 114.78282 H 71.967952 V 98.907848 Z m 0.721591,0.7216 H 71.24636 V 114.06122 H 56.814532 Z" /><path
       id="rect14"
       style="fill:#ffffff;stroke-width:26.7014;paint-order:markers fill stroke"
       d="m 1.5094719,128.44488 0,4.23333 a 0.52916667,0.52916667 45 0 0 0.5291667,0.52917 h 0.9260416 a 0.52916667,0.52916667 135 0 0 0.5291667,-0.52917 v -2.24895 a 0.52916667,0.52916667 135 0 1 0.5291667,-0.52917 h 2.2489583 a 0.52916667,0.52916667 135 0 0 0.5291667,-0.52917 v -0.92604 a 0.52916667,0.52916667 45 0 0 -0.5291667,-0.52917 l -4.2333333,0 a 0.52916667,0.52916667 135 0 0 -0.5291667,0.52917 z m 7.9375,0 v 0.92604 a 0.52916667,0.52916667 45 0 0 0.5291667,0.52917 h 2.2489584 a 0.52916667,0.52916667 45 0 1 0.529167,0.52917 v 2.24895 a 0.52916667,0.52916667 45 0 0 0.529167,0.52917 h 0.926041 a 0.52916667,0.52916667 135 0 0 0.529167,-0.52917 l 0,-4.23333 a 0.52916667,0.52916667 45 0 0 -0.529167,-0.52917 H 9.9761386 a 0.52916667,0.52916667 135 0 0 -0.5291667,0.52917 z m -7.9375,7.9375 v 4.23333 a 0.52916667,0.52916667 45 0 0 0.5291667,0.52917 h 4.2333333 a 0.52916667,0.52916667 135 0 0 0.5291667,-0.52917 v -0.92604 A 0.52916667,0.52916667 45 0 0 6.2719719,139.1605 H 4.0230136 a 0.52916667,0.52916667 45 0 1 -0.5291667,-0.52917 v -2.24895 A 0.52916667,0.52916667 45 0 0 2.9646802,135.85321 H 2.0386386 a 0.52916667,0.52916667 135 0 0 -0.5291667,0.52917 z m 11.2447921,0 v 2.24895 a 0.52916667,0.52916667 135 0 1 -0.529167,0.52917 H 9.9761386 a 0.52916667,0.52916667 135 0 0 -0.5291667,0.52917 v 0.92604 a 0.52916667,0.52916667 45 0 0 0.5291667,0.52917 h 4.2333334 a 0.52916667,0.52916667 135 0 0 0.529167,-0.52917 v -4.23333 a 0.52916667,0.52916667 45 0 0 -0.529167,-0.52917 h -0.926041 a 0.52916667,0.52916667 135 0 0 -0.529167,0.52917 z"
       inkscape:path-effect="#path-effect15"
       inkscape:original-d="M 1.5094719 127.91571 L 1.5094719 133.20738 L 3.4938469 133.20738 L 3.4938469 129.90009 L 6.8011386 129.90009 L 6.8011386 127.91571 L 1.5094719 127.91571 z M 9.4469719 127.91571 L 9.4469719 129.90009 L 12.754264 129.90009 L 12.754264 133.20738 L 14.738639 133.20738 L 14.738639 127.91571 L 9.4469719 127.91571 z M 1.5094719 135.85321 L 1.5094719 141.14488 L 6.8011386 141.14488 L 6.8011386 139.1605 L 3.4938469 139.1605 L 3.4938469 135.85321 L 1.5094719 135.85321 z M 12.754264 135.85321 L 12.754264 139.1605 L 9.4469719 139.1605 L 9.4469719 141.14488 L 14.738639 141.14488 L 14.738639 135.85321 L 12.754264 135.85321 z " /><g
       id="g22"
       transform="translate(55.369945,-26.659603)"><path
         style="fill:#ffffff;stroke-width:26.7014;paint-order:markers fill stroke"
         inkscape:path-effect="#path-effect21"
         inkscape:original-d="m 12.754264,135.85321 v 3.30729 H 9.4469719 v 1.98438 h 5.2916671 v -5.29167 z"
         transform="translate(27.781263,1.32292)"
         d="m 12.754264,136.38238 v 2.24895 a 0.52916667,0.52916667 135 0 1 -0.529167,0.52917 H 9.9761386 a 0.52916667,0.52916667 135 0 0 -0.5291667,0.52917 v 0.92604 a 0.52916667,0.52916667 45 0 0 0.5291667,0.52917 h 4.2333334 a 0.52916667,0.52916667 135 0 0 0.529167,-0.52917 v -4.23333 a 0.52916667,0.52916667 45 0 0 -0.529167,-0.52917 l -0.926041,0 a 0.52916667,0.52916667 135 0 0 -0.529167,0.52917 z"
         id="path19" /><path
         style="fill:#ffffff;stroke-width:26.7014;paint-order:markers fill stroke"
         inkscape:path-effect="#path-effect19"
         inkscape:original-d="m 1.5094719,135.85321 v 5.29167 H 6.8011386 V 139.1605 H 3.4938469 v -3.30729 z"
         transform="translate(25.135404,1.32292)"
         d="m 1.5094719,136.38238 v 4.23333 a 0.52916667,0.52916667 45 0 0 0.5291667,0.52917 h 4.2333333 a 0.52916667,0.52916667 135 0 0 0.5291667,-0.52917 v -0.92604 A 0.52916667,0.52916667 45 0 0 6.2719719,139.1605 H 4.0230136 a 0.52916667,0.52916667 45 0 1 -0.5291667,-0.52917 v -2.24895 a 0.52916667,0.52916667 45 0 0 -0.5291667,-0.52917 l -0.9260416,0 a 0.52916667,0.52916667 135 0 0 -0.5291667,0.52917 z"
         id="path17" /><path
         style="fill:#ffffff;stroke-width:26.7014;paint-order:markers fill stroke"
         inkscape:path-effect="#path-effect17"
         inkscape:original-d="m 9.4469719,127.91571 v 1.98438 h 3.3072921 v 3.30729 h 1.984375 v -5.29167 z"
         transform="translate(27.781263,-1.32292)"
         d="m 9.4469719,128.44488 v 0.92604 a 0.52916667,0.52916667 45 0 0 0.5291667,0.52917 h 2.2489584 a 0.52916667,0.52916667 45 0 1 0.529167,0.52917 v 2.24895 a 0.52916667,0.52916667 45 0 0 0.529167,0.52917 h 0.926041 a 0.52916667,0.52916667 135 0 0 0.529167,-0.52917 l 0,-4.23333 a 0.52916667,0.52916667 45 0 0 -0.529167,-0.52917 H 9.9761386 a 0.52916667,0.52916667 135 0 0 -0.5291667,0.52917 z"
         id="path15" /><path
         style="fill:#ffffff;stroke-width:26.7014;paint-order:markers fill stroke"
         inkscape:path-effect="#path-effect15-8"
         inkscape:original-d="m 1.5094719,127.91571 v 5.29167 h 1.984375 v -3.30729 h 3.3072917 v -1.98438 z"
         transform="translate(25.135404,-1.32292)"
         d="m 1.5094719,128.44488 0,4.23333 a 0.52916667,0.52916667 45 0 0 0.5291667,0.52917 h 0.9260416 a 0.52916667,0.52916667 135 0 0 0.5291667,-0.52917 v -2.24895 a 0.52916667,0.52916667 135 0 1 0.5291667,-0.52917 h 2.2489583 a 0.52916667,0.52916667 135 0 0 0.5291667,-0.52917 v -0.92604 a 0.52916667,0.52916667 45 0 0 -0.5291667,-0.52917 l -4.2333333,0 a 0.52916667,0.52916667 135 0 0 -0.5291667,0.52917 z"
         id="rect14-3" /></g><g
       id="g23"
       transform="translate(-26.458343,-29.72687)"><path
         style="fill:#ffffff;stroke-width:26.7014;paint-order:markers fill stroke"
         inkscape:path-effect="#path-effect17-1"
         inkscape:original-d="m 9.4469719,127.91571 v 1.98438 h 3.3072921 v 3.30729 h 1.984375 v -5.29167 z"
         transform="rotate(90,34.582384,151.7282)"
         d="m 9.4469719,128.44488 v 0.92604 a 0.52916667,0.52916667 45 0 0 0.5291667,0.52917 h 2.2489584 a 0.52916667,0.52916667 45 0 1 0.529167,0.52917 v 2.24895 a 0.52916667,0.52916667 45 0 0 0.529167,0.52917 h 0.926041 a 0.52916667,0.52916667 135 0 0 0.529167,-0.52917 l 0,-4.23333 a 0.52916667,0.52916667 45 0 0 -0.529167,-0.52917 H 9.9761386 a 0.52916667,0.52916667 135 0 0 -0.5291667,0.52917 z"
         id="path15-5" /><path
         style="fill:#ffffff;stroke-width:26.7014;paint-order:markers fill stroke"
         inkscape:path-effect="#path-effect17-1-8"
         inkscape:original-d="m 9.4469719,127.91571 v 1.98438 h 3.3072921 v 3.30729 h 1.984375 v -5.29167 z"
         transform="rotate(180,39.212602,129.90009)"
         d="m 9.4469719,128.44488 v 0.92604 a 0.52916667,0.52916667 45 0 0 0.5291667,0.52917 h 2.2489584 a 0.52916667,0.52916667 45 0 1 0.529167,0.52917 v 2.24895 a 0.52916667,0.52916667 45 0 0 0.529167,0.52917 h 0.926041 a 0.52916667,0.52916667 135 0 0 0.529167,-0.52917 l 0,-4.23333 a 0.52916667,0.52916667 45 0 0 -0.529167,-0.52917 H 9.9761386 a 0.52916667,0.52916667 135 0 0 -0.5291667,0.52917 z"
         id="path15-5-7" /><path
         style="fill:#ffffff;stroke-width:26.7014;paint-order:markers fill stroke"
         inkscape:path-effect="#path-effect17-1-8-2"
         inkscape:original-d="m 9.4469719,127.91571 v 1.98438 h 3.3072921 v 3.30729 h 1.984375 v -5.29167 z"
         transform="translate(43.656235,9.26042)"
         d="m 9.4469719,128.44488 v 0.92604 a 0.52916667,0.52916667 45 0 0 0.5291667,0.52917 h 2.2489584 a 0.52916667,0.52916667 45 0 1 0.529167,0.52917 v 2.24895 a 0.52916667,0.52916667 45 0 0 0.529167,0.52917 h 0.926041 a 0.52916667,0.52916667 135 0 0 0.529167,-0.52917 l 0,-4.23333 a 0.52916667,0.52916667 45 0 0 -0.529167,-0.52917 H 9.9761386 a 0.52916667,0.52916667 135 0 0 -0.5291667,0.52917 z"
         id="path15-5-7-0" /><path
         style="fill:#ffffff;stroke-width:26.7014;paint-order:markers fill stroke"
         inkscape:path-effect="#path-effect17-1-8-2-9"
         inkscape:original-d="m 9.4469719,127.91571 v 1.98438 h 3.3072921 v 3.30729 h 1.984375 v -5.29167 z"
         transform="rotate(-90,43.842794,108.07198)"
         d="m 9.4469719,128.44488 v 0.92604 a 0.52916667,0.52916667 45 0 0 0.5291667,0.52917 h 2.2489584 a 0.52916667,0.52916667 45 0 1 0.529167,0.52917 v 2.24895 a 0.52916667,0.52916667 45 0 0 0.529167,0.52917 h 0.926041 a 0.52916667,0.52916667 135 0 0 0.529167,-0.52917 l 0,-4.23333 a 0.52916667,0.52916667 45 0 0 -0.529167,-0.52917 H 9.9761386 a 0.52916667,0.52916667 135 0 0 -0.5291667,0.52917 z"
         id="path15-5-7-0-6" /></g><g
       id="g28"><path
         style="fill:#ffffff;stroke-width:26.7014;paint-order:markers fill stroke"
         inkscape:path-effect="#path-effect17-1-88"
         inkscape:original-d="m 9.4469719,127.91571 v 1.98438 h 3.3072921 v 3.30729 h 1.984375 v -5.29167 z"
         transform="rotate(90,47.811552,166.28029)"
         d="m 9.4469719,128.44488 v 0.92604 a 0.52916667,0.52916667 45 0 0 0.5291667,0.52917 h 2.2489584 a 0.52916667,0.52916667 45 0 1 0.529167,0.52917 v 2.24895 a 0.52916667,0.52916667 45 0 0 0.529167,0.52917 h 0.926041 a 0.52916667,0.52916667 135 0 0 0.529167,-0.52917 l 0,-4.23333 a 0.52916667,0.52916667 45 0 0 -0.529167,-0.52917 H 9.9761386 a 0.52916667,0.52916667 135 0 0 -0.5291667,0.52917 z"
         id="path15-5-1" /><path
         style="fill:#ffffff;stroke-width:26.7014;paint-order:markers fill stroke"
         inkscape:path-effect="#path-effect17-1-8-27"
         inkscape:original-d="m 9.4469719,127.91571 v 1.98438 h 3.3072921 v 3.30729 h 1.984375 v -5.29167 z"
         transform="rotate(180,51.780307,130.53596)"
         d="m 9.4469719,128.44488 v 0.92604 a 0.52916667,0.52916667 45 0 0 0.5291667,0.52917 h 2.2489584 a 0.52916667,0.52916667 45 0 1 0.529167,0.52917 v 2.24895 a 0.52916667,0.52916667 45 0 0 0.529167,0.52917 h 0.926041 a 0.52916667,0.52916667 135 0 0 0.529167,-0.52917 l 0,-4.23333 a 0.52916667,0.52916667 45 0 0 -0.529167,-0.52917 H 9.9761386 a 0.52916667,0.52916667 135 0 0 -0.5291667,0.52917 z"
         id="path15-5-7-04" /><path
         style="fill:#ffffff;stroke-width:26.7014;paint-order:markers fill stroke"
         inkscape:path-effect="#path-effect17-1-8-2-7"
         inkscape:original-d="m 9.4469719,127.91571 v 1.98438 h 3.3072921 v 3.30729 h 1.984375 v -5.29167 z"
         transform="translate(71.437492,7.9264545)"
         d="m 9.4469719,128.44488 v 0.92604 a 0.52916667,0.52916667 45 0 0 0.5291667,0.52917 h 2.2489584 a 0.52916667,0.52916667 45 0 1 0.529167,0.52917 v 2.24895 a 0.52916667,0.52916667 45 0 0 0.529167,0.52917 h 0.926041 a 0.52916667,0.52916667 135 0 0 0.529167,-0.52917 l 0,-4.23333 a 0.52916667,0.52916667 45 0 0 -0.529167,-0.52917 H 9.9761386 a 0.52916667,0.52916667 135 0 0 -0.5291667,0.52917 z"
         id="path15-5-7-0-4" /><path
         style="fill:#ffffff;stroke-width:26.7014;paint-order:markers fill stroke"
         inkscape:path-effect="#path-effect17-1-8-2-9-3"
         inkscape:original-d="m 9.4469719,127.91571 v 1.98438 h 3.3072921 v 3.30729 h 1.984375 v -5.29167 z"
         transform="rotate(-90,55.743534,94.837271)"
         d="m 9.4469719,128.44488 v 0.92604 a 0.52916667,0.52916667 45 0 0 0.5291667,0.52917 h 2.2489584 a 0.52916667,0.52916667 45 0 1 0.529167,0.52917 v 2.24895 a 0.52916667,0.52916667 45 0 0 0.529167,0.52917 h 0.926041 a 0.52916667,0.52916667 135 0 0 0.529167,-0.52917 l 0,-4.23333 a 0.52916667,0.52916667 45 0 0 -0.529167,-0.52917 H 9.9761386 a 0.52916667,0.52916667 135 0 0 -0.5291667,0.52917 z"
         id="path15-5-7-0-6-2" /></g><path
       id="rect21"
       style="fill:#ffffff;stroke-width:34.2788;paint-order:markers fill stroke"
       d="m 26.644889,127.12196 v 4.89479 a 0.52916667,0.52916667 45 0 0 0.529167,0.52917 h 0.926041 a 0.52916667,0.52916667 135 0 0 0.529167,-0.52917 v -2.91041 a 0.52916667,0.52916667 135 0 1 0.529167,-0.52917 h 2.910416 a 0.52916667,0.52916667 135 0 0 0.529167,-0.52917 v -0.92604 a 0.52916667,0.52916667 45 0 0 -0.529167,-0.52917 h -4.894791 a 0.52916667,0.52916667 135 0 0 -0.529167,0.52917 z m 9.921875,0 v 0.92604 a 0.52916667,0.52916667 45 0 0 0.529167,0.52917 h 2.910416 a 0.52916667,0.52916667 45 0 1 0.529167,0.52917 v 2.91041 a 0.52916667,0.52916667 45 0 0 0.529167,0.52917 h 0.926041 a 0.52916667,0.52916667 135 0 0 0.529167,-0.52917 v -4.89479 a 0.52916667,0.52916667 45 0 0 -0.529167,-0.52917 h -4.894791 a 0.52916667,0.52916667 135 0 0 -0.529167,0.52917 z m -9.921875,9.92188 0,4.89479 a 0.52916667,0.52916667 45 0 0 0.529167,0.52917 h 4.894791 a 0.52916667,0.52916667 135 0 0 0.529167,-0.52917 v -0.92604 a 0.52916667,0.52916667 45 0 0 -0.529167,-0.52917 h -2.910416 a 0.52916667,0.52916667 45 0 1 -0.529167,-0.52917 v -2.91041 a 0.52916667,0.52916667 45 0 0 -0.529167,-0.52917 h -0.926041 a 0.52916667,0.52916667 135 0 0 -0.529167,0.52917 z m 13.890625,0 v 2.91041 a 0.52916667,0.52916667 135 0 1 -0.529167,0.52917 h -2.910416 a 0.52916667,0.52916667 135 0 0 -0.529167,0.52917 v 0.92604 a 0.52916667,0.52916667 45 0 0 0.529167,0.52917 h 4.894791 a 0.52916667,0.52916667 135 0 0 0.529167,-0.52917 v -4.89479 a 0.52916667,0.52916667 45 0 0 -0.529167,-0.52917 h -0.926041 a 0.52916667,0.52916667 135 0 0 -0.529167,0.52917 z"
       inkscape:path-effect="#path-effect22"
       inkscape:original-d="m 26.644889,126.59279 v 5.95313 h 1.984375 v -3.96875 h 3.96875 v -1.98438 z m 9.921875,0 v 1.98438 h 3.96875 v 3.96875 h 1.984375 v -5.95313 z m -9.921875,9.92188 v 5.95313 h 5.953125 v -1.98438 h -3.96875 v -3.96875 z m 13.890625,0 v 3.96875 h -3.96875 v 1.98438 h 5.953125 v -5.95313 z" /><g
       id="g29"><path
         style="fill:#ffffff;stroke-width:34.2788;paint-order:markers fill stroke"
         inkscape:path-effect="#path-effect28"
         inkscape:original-d="m 40.535514,136.51467 v 3.96875 h -3.96875 v 1.98438 h 5.953125 v -5.95313 z"
         transform="rotate(180,52.772495,139.49123)"
         d="m 40.535514,137.04384 v 2.91041 a 0.52916667,0.52916667 135 0 1 -0.529167,0.52917 h -2.910416 a 0.52916667,0.52916667 135 0 0 -0.529167,0.52917 v 0.92604 a 0.52916667,0.52916667 45 0 0 0.529167,0.52917 h 4.894791 a 0.52916667,0.52916667 135 0 0 0.529167,-0.52917 v -4.89479 a 0.52916667,0.52916667 45 0 0 -0.529167,-0.52917 h -0.926041 a 0.52916667,0.52916667 135 0 0 -0.529167,0.52917 z"
         id="path26" /><path
         style="fill:#ffffff;stroke-width:34.2788;paint-order:markers fill stroke"
         inkscape:path-effect="#path-effect26"
         inkscape:original-d="m 26.644889,136.51467 v 5.95313 h 5.953125 v -1.98438 h -3.96875 v -3.96875 z"
         transform="rotate(180,42.850614,139.49123)"
         d="m 26.644889,137.04384 0,4.89479 a 0.52916667,0.52916667 45 0 0 0.529167,0.52917 h 4.894791 a 0.52916667,0.52916667 135 0 0 0.529167,-0.52917 v -0.92604 a 0.52916667,0.52916667 45 0 0 -0.529167,-0.52917 h -2.910416 a 0.52916667,0.52916667 45 0 1 -0.529167,-0.52917 v -2.91041 a 0.52916667,0.52916667 45 0 0 -0.529167,-0.52917 h -0.926041 a 0.52916667,0.52916667 135 0 0 -0.529167,0.52917 z"
         id="path24" /><path
         style="fill:#ffffff;stroke-width:34.2788;paint-order:markers fill stroke"
         inkscape:path-effect="#path-effect24"
         inkscape:original-d="m 36.566764,126.59279 v 1.98438 h 3.96875 v 3.96875 h 1.984375 v -5.95313 z"
         transform="rotate(180,52.772495,129.56936)"
         d="m 36.566764,127.12196 v 0.92604 a 0.52916667,0.52916667 45 0 0 0.529167,0.52917 h 2.910416 a 0.52916667,0.52916667 45 0 1 0.529167,0.52917 v 2.91041 a 0.52916667,0.52916667 45 0 0 0.529167,0.52917 h 0.926041 a 0.52916667,0.52916667 135 0 0 0.529167,-0.52917 v -4.89479 a 0.52916667,0.52916667 45 0 0 -0.529167,-0.52917 h -4.894791 a 0.52916667,0.52916667 135 0 0 -0.529167,0.52917 z"
         id="path23" /><path
         style="fill:#ffffff;stroke-width:34.2788;paint-order:markers fill stroke"
         inkscape:path-effect="#path-effect22-9"
         inkscape:original-d="m 26.644889,126.59279 v 5.95313 h 1.984375 v -3.96875 h 3.96875 v -1.98438 z"
         transform="rotate(180,42.857196,129.56936)"
         d="m 26.644889,127.12196 v 4.89479 a 0.52916667,0.52916667 45 0 0 0.529167,0.52917 h 0.926041 a 0.52916667,0.52916667 135 0 0 0.529167,-0.52917 v -2.91041 a 0.52916667,0.52916667 135 0 1 0.529167,-0.52917 h 2.910416 a 0.52916667,0.52916667 135 0 0 0.529167,-0.52917 v -0.92604 a 0.52916667,0.52916667 45 0 0 -0.529167,-0.52917 h -4.894791 a 0.52916667,0.52916667 135 0 0 -0.529167,0.52917 z"
         id="rect21-9" /></g></g></svg>
