<?xml version="1.0" encoding="UTF-8" standalone="no"?>
<svg
   height="100"
   viewBox="0 0 100 99.999998"
   width="100"
   version="1.1"
   id="svg2"
   sodipodi:docname="Setting-black.svg"
   inkscape:version="1.3 (0e150ed6c4, 2023-07-21)"
   inkscape:export-filename="Setting.png"
   inkscape:export-xdpi="96"
   inkscape:export-ydpi="96"
   xmlns:inkscape="http://www.inkscape.org/namespaces/inkscape"
   xmlns:sodipodi="http://sodipodi.sourceforge.net/DTD/sodipodi-0.dtd"
   xmlns="http://www.w3.org/2000/svg"
   xmlns:svg="http://www.w3.org/2000/svg">
  <defs
     id="defs2" />
  <sodipodi:namedview
     id="namedview2"
     pagecolor="#333333"
     bordercolor="#000000"
     borderopacity="0.25"
     inkscape:showpageshadow="2"
     inkscape:pageopacity="0.0"
     inkscape:pagecheckerboard="0"
     inkscape:deskcolor="#3d3d3d"
     inkscape:zoom="1.9869792"
     inkscape:cx="-34.474443"
     inkscape:cy="70.207077"
     inkscape:window-width="1920"
     inkscape:window-height="998"
     inkscape:window-x="-11"
     inkscape:window-y="-11"
     inkscape:window-maximized="1"
     inkscape:current-layer="svg2" />
  <path
     d="m 142.55308,61.150723 h 24 v 24 h -24 z"
     fill="none"
     id="path1" />
  <path
     d="m 76.941756,53.552496 c 0.145,-1.16 0.25375,-2.32 0.25375,-3.5525 0,-1.2325 -0.10875,-2.3925 -0.25375,-3.5525 l 7.648748,-5.981249 c 0.68875,-0.54375 0.87,-1.5225 0.435,-2.32 L 77.775506,25.603749 c -0.435,-0.7975 -1.41375,-1.0875 -2.21125,-0.7975 l -9.02625,3.625 c -1.884999,-1.45 -3.915001,-2.64625 -6.12625,-3.5525 l -1.3775,-9.606249 c -0.10875,-0.87 -0.87,-1.5225 -1.77625,-1.5225 H 42.758007 c -0.90625,0 -1.6675,0.6525 -1.77625,1.5225 l -1.3775,9.606249 c -2.21125,0.90625 -4.24125,2.13875 -6.12625,3.5525 l -9.026249,-3.625 c -0.83375,-0.32625 -1.77625,0 -2.21125,0.7975 l -7.249999,12.542498 c -0.47125,0.7975 -0.25375,1.77625 0.435,2.32 l 7.648749,5.981249 c -0.145,1.16 -0.25375,2.35625 -0.25375,3.5525 0,1.19625 0.10875,2.3925 0.25375,3.5525 l -7.648749,5.98125 c -0.68875,0.54375 -0.87,1.522499 -0.435,2.319999 l 7.249999,12.542506 c 0.435,0.7975 1.41375,1.0875 2.21125,0.7975 l 9.026249,-3.625012 c 1.885,1.450012 3.915,2.646262 6.12625,3.552512 l 1.3775,9.606249 c 0.10875,0.87 0.87,1.5225 1.77625,1.5225 h 14.499999 c 0.90625,0 1.6675,-0.6525 1.77625,-1.5225 l 1.3775,-9.606249 c 2.211249,-0.90625 4.241251,-2.13875 6.12625,-3.552512 l 9.02625,3.625012 c 0.83375,0.32625 1.77625,0 2.21125,-0.7975 l 7.249998,-12.542506 c 0.435,-0.7975 0.25375,-1.776249 -0.435,-2.319999 z m -26.93375,9.134999 c -6.996249,0 -12.687499,-5.691249 -12.687499,-12.687499 0,-6.996249 5.69125,-12.687499 12.687499,-12.687499 6.99625,0 12.687499,5.69125 12.687499,12.687499 0,6.99625 -5.691249,12.687499 -12.687499,12.687499 z"
     id="path2"
     style="fill:#ffffff;stroke-width:3.625" />
</svg>
