<?xml version="1.0" encoding="UTF-8" standalone="no"?>
<svg
   viewBox="0 0 200 200"
   version="1.1"
   id="svg1"
   sodipodi:docname="Tirakat-V3.svg"
   width="200"
   height="200"
   inkscape:version="1.3 (0e150ed6c4, 2023-07-21)"
   inkscape:export-filename="Tirakat-V4.png"
   inkscape:export-xdpi="96"
   inkscape:export-ydpi="96"
   xmlns:inkscape="http://www.inkscape.org/namespaces/inkscape"
   xmlns:sodipodi="http://sodipodi.sourceforge.net/DTD/sodipodi-0.dtd"
   xmlns="http://www.w3.org/2000/svg"
   xmlns:svg="http://www.w3.org/2000/svg">
  <defs
     id="defs1">
    <inkscape:path-effect
       effect="fillet_chamfer"
       id="path-effect3"
       is_visible="true"
       lpeversion="1"
       nodesatellites_param="F,0,0,1,0,15,0,1 @ F,0,0,1,0,15,0,1 @ F,0,0,1,0,15,0,1 @ F,0,0,1,0,15,0,1"
       radius="15"
       unit="px"
       method="auto"
       mode="F"
       chamfer_steps="1"
       flexible="false"
       use_knot_distance="true"
       apply_no_radius="true"
       apply_with_radius="true"
       only_selected="false"
       hide_knots="false" />
    <inkscape:path-effect
       effect="fillet_chamfer"
       id="path-effect2-74"
       is_visible="true"
       lpeversion="1"
       nodesatellites_param="F,0,0,1,0,7,0,1 @ F,0,0,1,0,7,0,1 @ F,0,0,1,0,7,0,1 @ F,0,0,1,0,7,0,1"
       radius="7"
       unit="px"
       method="auto"
       mode="F"
       chamfer_steps="1"
       flexible="false"
       use_knot_distance="true"
       apply_no_radius="true"
       apply_with_radius="true"
       only_selected="false"
       hide_knots="false" />
    <inkscape:path-effect
       effect="fillet_chamfer"
       id="path-effect2-6-5"
       is_visible="true"
       lpeversion="1"
       nodesatellites_param="F,0,0,1,0,7,0,1 @ F,0,0,1,0,7,0,1 @ F,0,0,1,0,7,0,1 @ F,0,0,1,0,7,0,1"
       radius="7"
       unit="px"
       method="auto"
       mode="F"
       chamfer_steps="1"
       flexible="false"
       use_knot_distance="true"
       apply_no_radius="true"
       apply_with_radius="true"
       only_selected="false"
       hide_knots="false" />
    <inkscape:path-effect
       effect="fillet_chamfer"
       id="path-effect2-9-5"
       is_visible="true"
       lpeversion="1"
       nodesatellites_param="F,0,0,1,0,7,0,1 @ F,0,0,1,0,7,0,1 @ F,0,0,1,0,7,0,1 @ F,0,0,1,0,7,0,1"
       radius="7"
       unit="px"
       method="auto"
       mode="F"
       chamfer_steps="1"
       flexible="false"
       use_knot_distance="true"
       apply_no_radius="true"
       apply_with_radius="true"
       only_selected="false"
       hide_knots="false" />
    <inkscape:path-effect
       effect="fillet_chamfer"
       id="path-effect2-96-8"
       is_visible="true"
       lpeversion="1"
       nodesatellites_param="F,0,0,1,0,7,0,1 @ F,0,0,1,0,7,0,1 @ F,0,0,1,0,7,0,1 @ F,0,0,1,0,7,0,1"
       radius="7"
       unit="px"
       method="auto"
       mode="F"
       chamfer_steps="1"
       flexible="false"
       use_knot_distance="true"
       apply_no_radius="true"
       apply_with_radius="true"
       only_selected="false"
       hide_knots="false" />
    <inkscape:path-effect
       effect="fillet_chamfer"
       id="path-effect2-7-1"
       is_visible="true"
       lpeversion="1"
       nodesatellites_param="F,0,0,1,0,7,0,1 @ F,0,0,1,0,7,0,1 @ F,0,0,1,0,7,0,1 @ F,0,0,1,0,7,0,1"
       radius="7"
       unit="px"
       method="auto"
       mode="F"
       chamfer_steps="1"
       flexible="false"
       use_knot_distance="true"
       apply_no_radius="true"
       apply_with_radius="true"
       only_selected="false"
       hide_knots="false" />
    <inkscape:path-effect
       effect="fillet_chamfer"
       id="path-effect2-3-1"
       is_visible="true"
       lpeversion="1"
       nodesatellites_param="F,0,0,1,0,7,0,1 @ F,0,0,1,0,7,0,1 @ F,0,0,1,0,7,0,1 @ F,0,0,1,0,7,0,1"
       radius="7"
       unit="px"
       method="auto"
       mode="F"
       chamfer_steps="1"
       flexible="false"
       use_knot_distance="true"
       apply_no_radius="true"
       apply_with_radius="true"
       only_selected="false"
       hide_knots="false" />
    <inkscape:path-effect
       effect="fillet_chamfer"
       id="path-effect2-3-9-7"
       is_visible="true"
       lpeversion="1"
       nodesatellites_param="F,0,0,1,0,7,0,1 @ F,0,0,1,0,7,0,1 @ F,0,0,1,0,7,0,1 @ F,0,0,1,0,7,0,1"
       radius="7"
       unit="px"
       method="auto"
       mode="F"
       chamfer_steps="1"
       flexible="false"
       use_knot_distance="true"
       apply_no_radius="true"
       apply_with_radius="true"
       only_selected="false"
       hide_knots="false" />
    <inkscape:path-effect
       effect="fillet_chamfer"
       id="path-effect2-3-9-1-6"
       is_visible="true"
       lpeversion="1"
       nodesatellites_param="F,0,0,1,0,7,0,1 @ F,0,0,1,0,7,0,1 @ F,0,0,1,0,7,0,1 @ F,0,0,1,0,7,0,1"
       radius="7"
       unit="px"
       method="auto"
       mode="F"
       chamfer_steps="1"
       flexible="false"
       use_knot_distance="true"
       apply_no_radius="true"
       apply_with_radius="true"
       only_selected="false"
       hide_knots="false" />
    <inkscape:path-effect
       effect="fillet_chamfer"
       id="path-effect2-3-9-3-6"
       is_visible="true"
       lpeversion="1"
       nodesatellites_param="F,0,0,1,0,7,0,1 @ F,0,0,1,0,7,0,1 @ F,0,0,1,0,7,0,1 @ F,0,0,1,0,7,0,1"
       radius="7"
       unit="px"
       method="auto"
       mode="F"
       chamfer_steps="1"
       flexible="false"
       use_knot_distance="true"
       apply_no_radius="true"
       apply_with_radius="true"
       only_selected="false"
       hide_knots="false" />
  </defs>
  <sodipodi:namedview
     id="namedview1"
     pagecolor="#3f3f3f"
     bordercolor="#212121"
     borderopacity="0.24705882"
     inkscape:showpageshadow="2"
     inkscape:pageopacity="0.0"
     inkscape:pagecheckerboard="0"
     inkscape:deskcolor="#3f3f3f"
     inkscape:zoom="0.72167969"
     inkscape:cx="11.778078"
     inkscape:cy="86.603518"
     inkscape:window-width="1898"
     inkscape:window-height="952"
     inkscape:window-x="0"
     inkscape:window-y="0"
     inkscape:window-maximized="1"
     inkscape:current-layer="svg1" />
  <path
     style="fill:#000000;fill-opacity:1;stroke-width:143.532;paint-order:markers fill stroke"
     id="rect3"
     width="100"
     height="100"
     x="155.31345"
     y="-103.75"
     inkscape:path-effect="#path-effect3"
     sodipodi:type="rect"
     d="m 170.31345,-103.75 h 70 a 15,15 45 0 1 15,15 v 70 a 15,15 135 0 1 -15,15 h -70 a 15,15 45 0 1 -15,-15 v -70 a 15,15 135 0 1 15,-15 z"
     transform="matrix(2,0,0,2,-310.62689,207.5)" />
  <path
     style="fill:#e2e323;fill-opacity:1;stroke-width:159.617;paint-order:markers fill stroke"
     id="rect2-7"
     width="22.5"
     height="22.5"
     x="3.75"
     y="3.75"
     inkscape:path-effect="#path-effect2-74"
     sodipodi:type="rect"
     d="m 10.75,3.75 h 8.5 a 7,7 45 0 1 7,7 v 8.5 a 7,7 135 0 1 -7,7 h -8.5 a 7,7 45 0 1 -7,-7 v -8.5 a 7,7 135 0 1 7,-7 z"
     transform="matrix(1.6666667,0,0,1.6666667,25.000018,25)" />
  <path
     style="fill:#e2e323;fill-opacity:1;stroke-width:159.617;paint-order:markers fill stroke"
     id="rect2-5-4"
     width="22.5"
     height="22.5"
     x="3.75"
     y="3.75"
     inkscape:path-effect="#path-effect2-6-5"
     sodipodi:type="rect"
     d="m 10.75,3.75 h 8.5 a 7,7 45 0 1 7,7 v 8.5 a 7,7 135 0 1 -7,7 h -8.5 a 7,7 45 0 1 -7,-7 v -8.5 a 7,7 135 0 1 7,-7 z"
     transform="matrix(1.6666667,0,0,1.6666667,75.000018,25)" />
  <path
     style="fill:#e2e323;fill-opacity:1;stroke-width:159.617;paint-order:markers fill stroke"
     id="rect2-3-4"
     width="22.5"
     height="22.5"
     x="3.75"
     y="3.75"
     inkscape:path-effect="#path-effect2-9-5"
     sodipodi:type="rect"
     d="m 10.75,3.75 h 8.5 a 7,7 45 0 1 7,7 v 8.5 a 7,7 135 0 1 -7,7 h -8.5 a 7,7 45 0 1 -7,-7 v -8.5 a 7,7 135 0 1 7,-7 z"
     transform="matrix(1.6666667,0,0,1.6666667,125.00002,25)" />
  <path
     style="fill:#e2e323;fill-opacity:1;stroke-width:159.617;paint-order:markers fill stroke"
     id="rect2-2-5"
     width="22.5"
     height="22.5"
     x="3.75"
     y="3.75"
     inkscape:path-effect="#path-effect2-96-8"
     sodipodi:type="rect"
     d="m 10.75,3.75 h 8.5 a 7,7 45 0 1 7,7 v 8.5 a 7,7 135 0 1 -7,7 h -8.5 a 7,7 45 0 1 -7,-7 v -8.5 a 7,7 135 0 1 7,-7 z"
     transform="matrix(1.6666667,0,0,1.6666667,75.000018,75)" />
  <path
     style="fill:#e2e323;fill-opacity:1;stroke-width:159.617;paint-order:markers fill stroke"
     id="rect2-36-8"
     width="22.5"
     height="22.5"
     x="3.75"
     y="3.75"
     inkscape:path-effect="#path-effect2-7-1"
     sodipodi:type="rect"
     d="m 10.75,3.75 h 8.5 a 7,7 45 0 1 7,7 v 8.5 a 7,7 135 0 1 -7,7 h -8.5 a 7,7 45 0 1 -7,-7 v -8.5 a 7,7 135 0 1 7,-7 z"
     transform="matrix(1.6666667,0,0,1.6666667,75.000018,125)" />
  <path
     style="fill:#1a1a1a;fill-opacity:1;stroke-width:159.617;paint-order:markers fill stroke"
     id="rect2-9-2"
     width="22.5"
     height="22.5"
     x="3.75"
     y="3.75"
     inkscape:path-effect="#path-effect2-3-1"
     sodipodi:type="rect"
     d="m 10.75,3.75 h 8.5 a 7,7 45 0 1 7,7 v 8.5 a 7,7 135 0 1 -7,7 h -8.5 a 7,7 45 0 1 -7,-7 v -8.5 a 7,7 135 0 1 7,-7 z"
     transform="matrix(1.6666667,0,0,1.6666667,25.000018,125)" />
  <path
     style="fill:#1a1a1a;fill-opacity:1;stroke-width:159.617;paint-order:markers fill stroke"
     id="rect2-9-9-6"
     width="22.5"
     height="22.5"
     x="3.75"
     y="3.75"
     inkscape:path-effect="#path-effect2-3-9-7"
     sodipodi:type="rect"
     d="m 10.75,3.75 h 8.5 a 7,7 45 0 1 7,7 v 8.5 a 7,7 135 0 1 -7,7 h -8.5 a 7,7 45 0 1 -7,-7 v -8.5 a 7,7 135 0 1 7,-7 z"
     transform="matrix(1.6666667,0,0,1.6666667,25.000018,75)" />
  <path
     style="fill:#1a1a1a;fill-opacity:1;stroke-width:159.617;paint-order:markers fill stroke"
     id="rect2-9-9-4-8"
     width="22.5"
     height="22.5"
     x="3.75"
     y="3.75"
     inkscape:path-effect="#path-effect2-3-9-1-6"
     sodipodi:type="rect"
     d="m 10.75,3.75 h 8.5 a 7,7 45 0 1 7,7 v 8.5 a 7,7 135 0 1 -7,7 h -8.5 a 7,7 45 0 1 -7,-7 v -8.5 a 7,7 135 0 1 7,-7 z"
     transform="matrix(1.6666667,0,0,1.6666667,125.00002,75)" />
  <path
     style="fill:#1a1a1a;fill-opacity:1;stroke-width:159.617;paint-order:markers fill stroke"
     id="rect2-9-9-0-1"
     width="22.5"
     height="22.5"
     x="3.75"
     y="3.75"
     inkscape:path-effect="#path-effect2-3-9-3-6"
     sodipodi:type="rect"
     d="m 10.75,3.75 h 8.5 a 7,7 45 0 1 7,7 v 8.5 a 7,7 135 0 1 -7,7 h -8.5 a 7,7 45 0 1 -7,-7 v -8.5 a 7,7 135 0 1 7,-7 z"
     transform="matrix(1.6666667,0,0,1.6666667,125.00002,125)" />
</svg>
