<?xml version="1.0" encoding="UTF-8" standalone="no"?>
<svg
   viewBox="0 0 90 90"
   version="1.1"
   id="svg1"
   sodipodi:docname="Tirakat-V2.svg"
   width="90"
   height="90"
   inkscape:version="1.3 (0e150ed6c4, 2023-07-21)"
   xmlns:inkscape="http://www.inkscape.org/namespaces/inkscape"
   xmlns:sodipodi="http://sodipodi.sourceforge.net/DTD/sodipodi-0.dtd"
   xmlns="http://www.w3.org/2000/svg"
   xmlns:svg="http://www.w3.org/2000/svg">
  <defs
     id="defs1">
    <inkscape:path-effect
       effect="fillet_chamfer"
       id="path-effect3"
       is_visible="true"
       lpeversion="1"
       nodesatellites_param="F,0,0,1,0,15,0,1 @ F,0,0,1,0,15,0,1 @ F,0,0,1,0,15,0,1 @ F,0,0,1,0,15,0,1"
       radius="15"
       unit="px"
       method="auto"
       mode="F"
       chamfer_steps="1"
       flexible="false"
       use_knot_distance="true"
       apply_no_radius="true"
       apply_with_radius="true"
       only_selected="false"
       hide_knots="false" />
    <inkscape:path-effect
       effect="fillet_chamfer"
       id="path-effect2"
       is_visible="true"
       lpeversion="1"
       nodesatellites_param="F,0,0,1,0,7,0,1 @ F,0,0,1,0,7,0,1 @ F,0,0,1,0,7,0,1 @ F,0,0,1,0,7,0,1"
       radius="7"
       unit="px"
       method="auto"
       mode="F"
       chamfer_steps="1"
       flexible="false"
       use_knot_distance="true"
       apply_no_radius="true"
       apply_with_radius="true"
       only_selected="false"
       hide_knots="false" />
    <inkscape:path-effect
       effect="fillet_chamfer"
       id="path-effect2-3"
       is_visible="true"
       lpeversion="1"
       nodesatellites_param="F,0,0,1,0,7,0,1 @ F,0,0,1,0,7,0,1 @ F,0,0,1,0,7,0,1 @ F,0,0,1,0,7,0,1"
       radius="7"
       unit="px"
       method="auto"
       mode="F"
       chamfer_steps="1"
       flexible="false"
       use_knot_distance="true"
       apply_no_radius="true"
       apply_with_radius="true"
       only_selected="false"
       hide_knots="false" />
    <inkscape:path-effect
       effect="fillet_chamfer"
       id="path-effect2-3-9"
       is_visible="true"
       lpeversion="1"
       nodesatellites_param="F,0,0,1,0,7,0,1 @ F,0,0,1,0,7,0,1 @ F,0,0,1,0,7,0,1 @ F,0,0,1,0,7,0,1"
       radius="7"
       unit="px"
       method="auto"
       mode="F"
       chamfer_steps="1"
       flexible="false"
       use_knot_distance="true"
       apply_no_radius="true"
       apply_with_radius="true"
       only_selected="false"
       hide_knots="false" />
    <inkscape:path-effect
       effect="fillet_chamfer"
       id="path-effect2-6"
       is_visible="true"
       lpeversion="1"
       nodesatellites_param="F,0,0,1,0,7,0,1 @ F,0,0,1,0,7,0,1 @ F,0,0,1,0,7,0,1 @ F,0,0,1,0,7,0,1"
       radius="7"
       unit="px"
       method="auto"
       mode="F"
       chamfer_steps="1"
       flexible="false"
       use_knot_distance="true"
       apply_no_radius="true"
       apply_with_radius="true"
       only_selected="false"
       hide_knots="false" />
    <inkscape:path-effect
       effect="fillet_chamfer"
       id="path-effect2-9"
       is_visible="true"
       lpeversion="1"
       nodesatellites_param="F,0,0,1,0,7,0,1 @ F,0,0,1,0,7,0,1 @ F,0,0,1,0,7,0,1 @ F,0,0,1,0,7,0,1"
       radius="7"
       unit="px"
       method="auto"
       mode="F"
       chamfer_steps="1"
       flexible="false"
       use_knot_distance="true"
       apply_no_radius="true"
       apply_with_radius="true"
       only_selected="false"
       hide_knots="false" />
    <inkscape:path-effect
       effect="fillet_chamfer"
       id="path-effect2-96"
       is_visible="true"
       lpeversion="1"
       nodesatellites_param="F,0,0,1,0,7,0,1 @ F,0,0,1,0,7,0,1 @ F,0,0,1,0,7,0,1 @ F,0,0,1,0,7,0,1"
       radius="7"
       unit="px"
       method="auto"
       mode="F"
       chamfer_steps="1"
       flexible="false"
       use_knot_distance="true"
       apply_no_radius="true"
       apply_with_radius="true"
       only_selected="false"
       hide_knots="false" />
    <inkscape:path-effect
       effect="fillet_chamfer"
       id="path-effect2-7"
       is_visible="true"
       lpeversion="1"
       nodesatellites_param="F,0,0,1,0,7,0,1 @ F,0,0,1,0,7,0,1 @ F,0,0,1,0,7,0,1 @ F,0,0,1,0,7,0,1"
       radius="7"
       unit="px"
       method="auto"
       mode="F"
       chamfer_steps="1"
       flexible="false"
       use_knot_distance="true"
       apply_no_radius="true"
       apply_with_radius="true"
       only_selected="false"
       hide_knots="false" />
    <inkscape:path-effect
       effect="fillet_chamfer"
       id="path-effect2-3-9-1"
       is_visible="true"
       lpeversion="1"
       nodesatellites_param="F,0,0,1,0,7,0,1 @ F,0,0,1,0,7,0,1 @ F,0,0,1,0,7,0,1 @ F,0,0,1,0,7,0,1"
       radius="7"
       unit="px"
       method="auto"
       mode="F"
       chamfer_steps="1"
       flexible="false"
       use_knot_distance="true"
       apply_no_radius="true"
       apply_with_radius="true"
       only_selected="false"
       hide_knots="false" />
    <inkscape:path-effect
       effect="fillet_chamfer"
       id="path-effect2-3-9-3"
       is_visible="true"
       lpeversion="1"
       nodesatellites_param="F,0,0,1,0,7,0,1 @ F,0,0,1,0,7,0,1 @ F,0,0,1,0,7,0,1 @ F,0,0,1,0,7,0,1"
       radius="7"
       unit="px"
       method="auto"
       mode="F"
       chamfer_steps="1"
       flexible="false"
       use_knot_distance="true"
       apply_no_radius="true"
       apply_with_radius="true"
       only_selected="false"
       hide_knots="false" />
    <inkscape:path-effect
       effect="fillet_chamfer"
       id="path-effect2-74"
       is_visible="true"
       lpeversion="1"
       nodesatellites_param="F,0,0,1,0,7,0,1 @ F,0,0,1,0,7,0,1 @ F,0,0,1,0,7,0,1 @ F,0,0,1,0,7,0,1"
       radius="7"
       unit="px"
       method="auto"
       mode="F"
       chamfer_steps="1"
       flexible="false"
       use_knot_distance="true"
       apply_no_radius="true"
       apply_with_radius="true"
       only_selected="false"
       hide_knots="false" />
    <inkscape:path-effect
       effect="fillet_chamfer"
       id="path-effect2-6-5"
       is_visible="true"
       lpeversion="1"
       nodesatellites_param="F,0,0,1,0,7,0,1 @ F,0,0,1,0,7,0,1 @ F,0,0,1,0,7,0,1 @ F,0,0,1,0,7,0,1"
       radius="7"
       unit="px"
       method="auto"
       mode="F"
       chamfer_steps="1"
       flexible="false"
       use_knot_distance="true"
       apply_no_radius="true"
       apply_with_radius="true"
       only_selected="false"
       hide_knots="false" />
    <inkscape:path-effect
       effect="fillet_chamfer"
       id="path-effect2-9-5"
       is_visible="true"
       lpeversion="1"
       nodesatellites_param="F,0,0,1,0,7,0,1 @ F,0,0,1,0,7,0,1 @ F,0,0,1,0,7,0,1 @ F,0,0,1,0,7,0,1"
       radius="7"
       unit="px"
       method="auto"
       mode="F"
       chamfer_steps="1"
       flexible="false"
       use_knot_distance="true"
       apply_no_radius="true"
       apply_with_radius="true"
       only_selected="false"
       hide_knots="false" />
    <inkscape:path-effect
       effect="fillet_chamfer"
       id="path-effect2-96-8"
       is_visible="true"
       lpeversion="1"
       nodesatellites_param="F,0,0,1,0,7,0,1 @ F,0,0,1,0,7,0,1 @ F,0,0,1,0,7,0,1 @ F,0,0,1,0,7,0,1"
       radius="7"
       unit="px"
       method="auto"
       mode="F"
       chamfer_steps="1"
       flexible="false"
       use_knot_distance="true"
       apply_no_radius="true"
       apply_with_radius="true"
       only_selected="false"
       hide_knots="false" />
    <inkscape:path-effect
       effect="fillet_chamfer"
       id="path-effect2-7-1"
       is_visible="true"
       lpeversion="1"
       nodesatellites_param="F,0,0,1,0,7,0,1 @ F,0,0,1,0,7,0,1 @ F,0,0,1,0,7,0,1 @ F,0,0,1,0,7,0,1"
       radius="7"
       unit="px"
       method="auto"
       mode="F"
       chamfer_steps="1"
       flexible="false"
       use_knot_distance="true"
       apply_no_radius="true"
       apply_with_radius="true"
       only_selected="false"
       hide_knots="false" />
    <inkscape:path-effect
       effect="fillet_chamfer"
       id="path-effect2-3-1"
       is_visible="true"
       lpeversion="1"
       nodesatellites_param="F,0,0,1,0,7,0,1 @ F,0,0,1,0,7,0,1 @ F,0,0,1,0,7,0,1 @ F,0,0,1,0,7,0,1"
       radius="7"
       unit="px"
       method="auto"
       mode="F"
       chamfer_steps="1"
       flexible="false"
       use_knot_distance="true"
       apply_no_radius="true"
       apply_with_radius="true"
       only_selected="false"
       hide_knots="false" />
    <inkscape:path-effect
       effect="fillet_chamfer"
       id="path-effect2-3-9-7"
       is_visible="true"
       lpeversion="1"
       nodesatellites_param="F,0,0,1,0,7,0,1 @ F,0,0,1,0,7,0,1 @ F,0,0,1,0,7,0,1 @ F,0,0,1,0,7,0,1"
       radius="7"
       unit="px"
       method="auto"
       mode="F"
       chamfer_steps="1"
       flexible="false"
       use_knot_distance="true"
       apply_no_radius="true"
       apply_with_radius="true"
       only_selected="false"
       hide_knots="false" />
    <inkscape:path-effect
       effect="fillet_chamfer"
       id="path-effect2-3-9-1-6"
       is_visible="true"
       lpeversion="1"
       nodesatellites_param="F,0,0,1,0,7,0,1 @ F,0,0,1,0,7,0,1 @ F,0,0,1,0,7,0,1 @ F,0,0,1,0,7,0,1"
       radius="7"
       unit="px"
       method="auto"
       mode="F"
       chamfer_steps="1"
       flexible="false"
       use_knot_distance="true"
       apply_no_radius="true"
       apply_with_radius="true"
       only_selected="false"
       hide_knots="false" />
    <inkscape:path-effect
       effect="fillet_chamfer"
       id="path-effect2-3-9-3-6"
       is_visible="true"
       lpeversion="1"
       nodesatellites_param="F,0,0,1,0,7,0,1 @ F,0,0,1,0,7,0,1 @ F,0,0,1,0,7,0,1 @ F,0,0,1,0,7,0,1"
       radius="7"
       unit="px"
       method="auto"
       mode="F"
       chamfer_steps="1"
       flexible="false"
       use_knot_distance="true"
       apply_no_radius="true"
       apply_with_radius="true"
       only_selected="false"
       hide_knots="false" />
  </defs>
  <sodipodi:namedview
     id="namedview1"
     pagecolor="#3f3f3f"
     bordercolor="#212121"
     borderopacity="0.24705882"
     inkscape:showpageshadow="2"
     inkscape:pageopacity="0.0"
     inkscape:pagecheckerboard="0"
     inkscape:deskcolor="#3f3f3f"
     inkscape:zoom="2.0412184"
     inkscape:cx="126.885"
     inkscape:cy="88.917483"
     inkscape:window-width="1920"
     inkscape:window-height="998"
     inkscape:window-x="-11"
     inkscape:window-y="-11"
     inkscape:window-maximized="1"
     inkscape:current-layer="svg1" />
  <path
     id="rect1"
     style="fill:#808080;stroke-width:10.7669;paint-order:markers fill stroke"
     d="M 0,0 V 30 H 30 V 0 Z m 0.75,0.75 h 28.5 v 28.5 H 0.75 Z" />
  <path
     id="rect1-0"
     style="fill:#808080;stroke-width:10.7669;paint-order:markers fill stroke"
     d="M 30,0 V 30 H 60 V 0 Z m 0.75,0.75 h 28.5 v 28.5 h -28.5 z" />
  <path
     id="rect1-2"
     style="fill:#808080;stroke-width:10.7669;paint-order:markers fill stroke"
     d="M 60,0 V 30 H 90 V 0 Z m 0.75,0.75 h 28.5 v 28.5 h -28.5 z" />
  <path
     id="rect1-1"
     style="fill:#808080;stroke-width:10.7669;paint-order:markers fill stroke"
     d="M 0,30 V 60 H 30 V 30 Z m 0.75,0.75 h 28.5 v 28.5 H 0.75 Z" />
  <path
     id="rect1-0-1"
     style="fill:#808080;stroke-width:10.7669;paint-order:markers fill stroke"
     d="M 30,30 V 60 H 60 V 30 Z m 0.75,0.75 h 28.5 v 28.5 h -28.5 z" />
  <path
     id="rect1-2-6"
     style="fill:#808080;stroke-width:10.7669;paint-order:markers fill stroke"
     d="M 60,30 V 60 H 90 V 30 Z m 0.75,0.75 h 28.5 v 28.5 h -28.5 z" />
  <path
     id="rect1-9"
     style="fill:#808080;stroke-width:10.7669;paint-order:markers fill stroke"
     d="M 0,60 V 90 H 30 V 60 Z m 0.75,0.75 h 28.5 v 28.5 H 0.75 Z" />
  <path
     id="rect1-0-9"
     style="fill:#808080;stroke-width:10.7669;paint-order:markers fill stroke"
     d="M 30,60 V 90 H 60 V 60 Z m 0.75,0.75 h 28.5 v 28.5 h -28.5 z" />
  <path
     id="rect1-2-1"
     style="fill:#808080;stroke-width:10.7669;paint-order:markers fill stroke"
     d="M 60,60 V 90 H 90 V 60 Z m 0.75,0.75 h 28.5 v 28.5 h -28.5 z" />
  <path
     style="fill:#5a78fe;stroke-width:159.617;paint-order:markers fill stroke;fill-opacity:1"
     id="rect2"
     width="22.5"
     height="22.5"
     x="3.75"
     y="3.75"
     inkscape:path-effect="#path-effect2"
     sodipodi:type="rect"
     d="m 10.75,3.75 h 8.5 a 7,7 45 0 1 7,7 v 8.5 a 7,7 135 0 1 -7,7 h -8.5 a 7,7 45 0 1 -7,-7 v -8.5 a 7,7 135 0 1 7,-7 z" />
  <path
     style="fill:#5a78fe;fill-opacity:1;stroke-width:159.617;paint-order:markers fill stroke"
     id="rect2-5"
     width="22.5"
     height="22.5"
     x="3.75"
     y="3.75"
     inkscape:path-effect="#path-effect2-6"
     sodipodi:type="rect"
     d="m 10.75,3.75 h 8.5 a 7,7 45 0 1 7,7 v 8.5 a 7,7 135 0 1 -7,7 h -8.5 a 7,7 45 0 1 -7,-7 v -8.5 a 7,7 135 0 1 7,-7 z"
     transform="translate(30)" />
  <path
     style="fill:#5a78fe;fill-opacity:1;stroke-width:159.617;paint-order:markers fill stroke"
     id="rect2-3"
     width="22.5"
     height="22.5"
     x="3.75"
     y="3.75"
     inkscape:path-effect="#path-effect2-9"
     sodipodi:type="rect"
     d="m 10.75,3.75 h 8.5 a 7,7 45 0 1 7,7 v 8.5 a 7,7 135 0 1 -7,7 h -8.5 a 7,7 45 0 1 -7,-7 v -8.5 a 7,7 135 0 1 7,-7 z"
     transform="translate(60)" />
  <path
     style="fill:#5a78fe;fill-opacity:1;stroke-width:159.617;paint-order:markers fill stroke"
     id="rect2-2"
     width="22.5"
     height="22.5"
     x="3.75"
     y="3.75"
     inkscape:path-effect="#path-effect2-96"
     sodipodi:type="rect"
     d="m 10.75,3.75 h 8.5 a 7,7 45 0 1 7,7 v 8.5 a 7,7 135 0 1 -7,7 h -8.5 a 7,7 45 0 1 -7,-7 v -8.5 a 7,7 135 0 1 7,-7 z"
     transform="translate(30,30)" />
  <path
     style="fill:#5a78fe;fill-opacity:1;stroke-width:159.617;paint-order:markers fill stroke"
     id="rect2-36"
     width="22.5"
     height="22.5"
     x="3.75"
     y="3.75"
     inkscape:path-effect="#path-effect2-7"
     sodipodi:type="rect"
     d="m 10.75,3.75 h 8.5 a 7,7 45 0 1 7,7 v 8.5 a 7,7 135 0 1 -7,7 h -8.5 a 7,7 45 0 1 -7,-7 v -8.5 a 7,7 135 0 1 7,-7 z"
     transform="translate(30,60)" />
  <path
     style="fill:#e2e323;fill-opacity:1;stroke-width:159.617;paint-order:markers fill stroke"
     id="rect2-9"
     width="22.5"
     height="22.5"
     x="3.75"
     y="3.75"
     inkscape:path-effect="#path-effect2-3"
     sodipodi:type="rect"
     d="m 10.75,3.75 h 8.5 a 7,7 45 0 1 7,7 v 8.5 a 7,7 135 0 1 -7,7 h -8.5 a 7,7 45 0 1 -7,-7 v -8.5 a 7,7 135 0 1 7,-7 z"
     transform="translate(0,60)" />
  <path
     style="fill:#e2e323;fill-opacity:1;stroke-width:159.617;paint-order:markers fill stroke"
     id="rect2-9-9"
     width="22.5"
     height="22.5"
     x="3.75"
     y="3.75"
     inkscape:path-effect="#path-effect2-3-9"
     sodipodi:type="rect"
     d="m 10.75,3.75 h 8.5 a 7,7 45 0 1 7,7 v 8.5 a 7,7 135 0 1 -7,7 h -8.5 a 7,7 45 0 1 -7,-7 v -8.5 a 7,7 135 0 1 7,-7 z"
     transform="translate(0,30)" />
  <path
     style="fill:#e2e323;fill-opacity:1;stroke-width:159.617;paint-order:markers fill stroke"
     id="rect2-9-9-4"
     width="22.5"
     height="22.5"
     x="3.75"
     y="3.75"
     inkscape:path-effect="#path-effect2-3-9-1"
     sodipodi:type="rect"
     d="m 10.75,3.75 h 8.5 a 7,7 45 0 1 7,7 v 8.5 a 7,7 135 0 1 -7,7 h -8.5 a 7,7 45 0 1 -7,-7 v -8.5 a 7,7 135 0 1 7,-7 z"
     transform="translate(60,30)" />
  <path
     style="fill:#e2e323;fill-opacity:1;stroke-width:159.617;paint-order:markers fill stroke"
     id="rect2-9-9-0"
     width="22.5"
     height="22.5"
     x="3.75"
     y="3.75"
     inkscape:path-effect="#path-effect2-3-9-3"
     sodipodi:type="rect"
     d="m 10.75,3.75 h 8.5 a 7,7 45 0 1 7,7 v 8.5 a 7,7 135 0 1 -7,7 h -8.5 a 7,7 45 0 1 -7,-7 v -8.5 a 7,7 135 0 1 7,-7 z"
     transform="translate(60,60)" />
  <path
     style="fill:#000000;fill-opacity:1;stroke-width:143.532;paint-order:markers fill stroke"
     id="rect3"
     width="100"
     height="100"
     x="155.31345"
     y="-103.75"
     inkscape:path-effect="#path-effect3"
     sodipodi:type="rect"
     d="m 170.31345,-103.75 h 70 a 15,15 45 0 1 15,15 v 70 a 15,15 135 0 1 -15,15 h -70 a 15,15 45 0 1 -15,-15 v -70 a 15,15 135 0 1 15,-15 z"
     transform="matrix(1.1,0,0,1.1,13.761903,119.125)" />
  <path
     style="fill:#5a78fe;fill-opacity:1;stroke-width:159.617;paint-order:markers fill stroke"
     id="rect2-7"
     width="22.5"
     height="22.5"
     x="3.75"
     y="3.75"
     inkscape:path-effect="#path-effect2-74"
     sodipodi:type="rect"
     d="m 10.75,3.75 h 8.5 a 7,7 45 0 1 7,7 v 8.5 a 7,7 135 0 1 -7,7 h -8.5 a 7,7 45 0 1 -7,-7 v -8.5 a 7,7 135 0 1 7,-7 z"
     transform="translate(194.60669,15)" />
  <path
     style="fill:#5a78fe;fill-opacity:1;stroke-width:159.617;paint-order:markers fill stroke"
     id="rect2-5-4"
     width="22.5"
     height="22.5"
     x="3.75"
     y="3.75"
     inkscape:path-effect="#path-effect2-6-5"
     sodipodi:type="rect"
     d="m 10.75,3.75 h 8.5 a 7,7 45 0 1 7,7 v 8.5 a 7,7 135 0 1 -7,7 h -8.5 a 7,7 45 0 1 -7,-7 v -8.5 a 7,7 135 0 1 7,-7 z"
     transform="translate(224.60669,15)" />
  <path
     style="fill:#5a78fe;fill-opacity:1;stroke-width:159.617;paint-order:markers fill stroke"
     id="rect2-3-4"
     width="22.5"
     height="22.5"
     x="3.75"
     y="3.75"
     inkscape:path-effect="#path-effect2-9-5"
     sodipodi:type="rect"
     d="m 10.75,3.75 h 8.5 a 7,7 45 0 1 7,7 v 8.5 a 7,7 135 0 1 -7,7 h -8.5 a 7,7 45 0 1 -7,-7 v -8.5 a 7,7 135 0 1 7,-7 z"
     transform="translate(254.60669,15)" />
  <path
     style="fill:#5a78fe;fill-opacity:1;stroke-width:159.617;paint-order:markers fill stroke"
     id="rect2-2-5"
     width="22.5"
     height="22.5"
     x="3.75"
     y="3.75"
     inkscape:path-effect="#path-effect2-96-8"
     sodipodi:type="rect"
     d="m 10.75,3.75 h 8.5 a 7,7 45 0 1 7,7 v 8.5 a 7,7 135 0 1 -7,7 h -8.5 a 7,7 45 0 1 -7,-7 v -8.5 a 7,7 135 0 1 7,-7 z"
     transform="translate(224.60669,45)" />
  <path
     style="fill:#5a78fe;fill-opacity:1;stroke-width:159.617;paint-order:markers fill stroke"
     id="rect2-36-8"
     width="22.5"
     height="22.5"
     x="3.75"
     y="3.75"
     inkscape:path-effect="#path-effect2-7-1"
     sodipodi:type="rect"
     d="m 10.75,3.75 h 8.5 a 7,7 45 0 1 7,7 v 8.5 a 7,7 135 0 1 -7,7 h -8.5 a 7,7 45 0 1 -7,-7 v -8.5 a 7,7 135 0 1 7,-7 z"
     transform="translate(224.60669,75)" />
  <path
     style="fill:#e2e323;fill-opacity:1;stroke-width:159.617;paint-order:markers fill stroke"
     id="rect2-9-2"
     width="22.5"
     height="22.5"
     x="3.75"
     y="3.75"
     inkscape:path-effect="#path-effect2-3-1"
     sodipodi:type="rect"
     d="m 10.75,3.75 h 8.5 a 7,7 45 0 1 7,7 v 8.5 a 7,7 135 0 1 -7,7 h -8.5 a 7,7 45 0 1 -7,-7 v -8.5 a 7,7 135 0 1 7,-7 z"
     transform="translate(194.60669,75)" />
  <path
     style="fill:#e2e323;fill-opacity:1;stroke-width:159.617;paint-order:markers fill stroke"
     id="rect2-9-9-6"
     width="22.5"
     height="22.5"
     x="3.75"
     y="3.75"
     inkscape:path-effect="#path-effect2-3-9-7"
     sodipodi:type="rect"
     d="m 10.75,3.75 h 8.5 a 7,7 45 0 1 7,7 v 8.5 a 7,7 135 0 1 -7,7 h -8.5 a 7,7 45 0 1 -7,-7 v -8.5 a 7,7 135 0 1 7,-7 z"
     transform="translate(194.60669,45)" />
  <path
     style="fill:#e2e323;fill-opacity:1;stroke-width:159.617;paint-order:markers fill stroke"
     id="rect2-9-9-4-8"
     width="22.5"
     height="22.5"
     x="3.75"
     y="3.75"
     inkscape:path-effect="#path-effect2-3-9-1-6"
     sodipodi:type="rect"
     d="m 10.75,3.75 h 8.5 a 7,7 45 0 1 7,7 v 8.5 a 7,7 135 0 1 -7,7 h -8.5 a 7,7 45 0 1 -7,-7 v -8.5 a 7,7 135 0 1 7,-7 z"
     transform="translate(254.60669,45)" />
  <path
     style="fill:#e2e323;fill-opacity:1;stroke-width:159.617;paint-order:markers fill stroke"
     id="rect2-9-9-0-1"
     width="22.5"
     height="22.5"
     x="3.75"
     y="3.75"
     inkscape:path-effect="#path-effect2-3-9-3-6"
     sodipodi:type="rect"
     d="m 10.75,3.75 h 8.5 a 7,7 45 0 1 7,7 v 8.5 a 7,7 135 0 1 -7,7 h -8.5 a 7,7 45 0 1 -7,-7 v -8.5 a 7,7 135 0 1 7,-7 z"
     transform="translate(254.60669,75)" />
</svg>
