<?xml version="1.0" encoding="UTF-8" standalone="no"?>
<svg
   viewBox="0 0 100 100"
   version="1.1"
   id="svg1"
   sodipodi:docname="Trash.svg"
   width="100"
   height="100"
   inkscape:version="1.3 (0e150ed6c4, 2023-07-21)"
   xmlns:inkscape="http://www.inkscape.org/namespaces/inkscape"
   xmlns:sodipodi="http://sodipodi.sourceforge.net/DTD/sodipodi-0.dtd"
   xmlns="http://www.w3.org/2000/svg"
   xmlns:svg="http://www.w3.org/2000/svg">
  <defs
     id="defs1" />
  <sodipodi:namedview
     id="namedview1"
     pagecolor="#3f3f3f"
     bordercolor="#212121"
     borderopacity="0.24705882"
     inkscape:showpageshadow="2"
     inkscape:pageopacity="0.0"
     inkscape:pagecheckerboard="0"
     inkscape:deskcolor="#3f3f3f"
     inkscape:zoom="2.8867187"
     inkscape:cx="76.55751"
     inkscape:cy="55.253045"
     inkscape:window-width="1898"
     inkscape:window-height="952"
     inkscape:window-x="0"
     inkscape:window-y="0"
     inkscape:window-maximized="1"
     inkscape:current-layer="svg1" />
  <path
     d="m 25.62503,76.406251 a 6.093748,6.093748 0 0 0 6.09375,6.09375 h 36.56244 a 6.093748,6.093748 0 0 0 6.09375,-6.09375 V 33.750011 H 25.62503 Z m 34.53119,-32.49999 a 2.0312501,2.0312501 0 0 1 4.0625,0 v 28.43749 a 2.0312501,2.0312501 0 0 1 -4.0625,0 z m -12.1875,0 a 2.0312501,2.0312501 0 0 1 4.0625,0 v 28.43749 a 2.0312501,2.0312501 0 0 1 -4.0625,0 z m -12.18744,0 a 2.0312501,2.0312501 0 0 1 4.0625,0 v 28.43749 a 2.0312501,2.0312501 0 0 1 -4.0625,0 z M 76.40622,21.562521 H 61.17184 l -1.19333,-2.37403 a 3.046874,3.046874 0 0 0 -2.72948,-1.68847 H 42.7383 a 3.0113271,3.0113271 0 0 0 -2.71681,1.68847 l -1.19333,2.37403 H 23.59378 a 2.0312493,2.0312493 0 0 0 -2.03125,2.03125 v 4.06249 a 2.0312493,2.0312493 0 0 0 2.03125,2.03125 h 52.81244 a 2.0312493,2.0312493 0 0 0 2.03125,-2.03125 v -4.06249 a 2.0312493,2.0312493 0 0 0 -2.03125,-2.03125 z"
     id="path1"
     style="fill:#ffffff;stroke-width:0.126953" />
  <path
     id="rect1"
     style="fill:#808080;stroke-width:35.8896;paint-order:markers fill stroke"
     d="M 0,0 V 100 H 100 V 0 Z m 2.5,2.5 h 95 v 95 h -95 z" />
</svg>
